<svg xmlns="http://www.w3.org/2000/svg" fill="none" viewBox="0 0 112 20">
  <path fill="#fff" d="M55.156 15.847h-2.164l5.686-11.874 5.685 11.874H62.2l-.906-1.862h-5.233l-.905 1.862Zm1.861-3.874h3.321l-1.66-3.422-1.66 3.422ZM27.28 9.66a3.436 3.436 0 0 0 .654-2.014 3.371 3.371 0 0 0-3.37-3.37H19.18v11.521h5.987a3.393 3.393 0 0 0 3.422-3.42c0-1.108-.504-2.064-1.309-2.718Zm-2.717-3.271c.705 0 1.258.553 1.258 1.257 0 .705-.553 1.258-1.258 1.258h-3.22V6.338l3.22.05Zm.604 7.346h-3.824v-2.717h3.824c.755 0 1.359.603 1.359 1.358 0 .755-.604 1.359-1.359 1.359ZM35.583 4.273a5.755 5.755 0 0 0-5.786 5.787 5.755 5.755 0 0 0 5.786 5.786 5.755 5.755 0 0 0 5.786-5.786 5.755 5.755 0 0 0-5.786-5.787Zm0 9.41a3.608 3.608 0 0 1-3.623-3.623 3.608 3.608 0 0 1 3.623-3.623 3.608 3.608 0 0 1 3.623 3.623 3.608 3.608 0 0 1-3.623 3.622ZM49.468 11.72a3.853 3.853 0 0 0 2.415-3.572 3.822 3.822 0 0 0-3.824-3.824h-4.98v11.522h2.062v-3.824h1.962l2.667 3.824h2.516l-2.818-4.126ZM48.01 9.91h-2.918V6.436h2.918c.956 0 1.761.805 1.761 1.761 0 .956-.805 1.711-1.761 1.711Z"/>
  <path fill="url(#a)" d="m14.357 8.966-4.773 2.756v5.284c0 .111.12.18.216.125l4.504-2.6a.144.144 0 0 0 .072-.125V9.038a.143.143 0 0 0-.019-.072Z"/>
  <path fill="url(#b)" d="m5.008 9.08 1.602.924 2.974 1.717 4.773-2.755a.145.145 0 0 0-.053-.053L9.656 6.23a.144.144 0 0 0-.144 0L6.447 8l-1.44.831a.144.144 0 0 0 0 .25Z"/>
  <path fill="url(#c)" d="M4.792.144c0-.11-.12-.18-.215-.125L.072 2.62A.144.144 0 0 0 0 2.745v14.427c0 .026.007.05.02.072l4.772-2.756V.144Z"/>
  <path fill="url(#d)" d="M.02 17.244c.011.022.03.04.052.053L4.72 19.98c.045.025.1.025.144 0l4.504-2.601a.144.144 0 0 0 0-.25L4.792 14.49.019 17.244Z"/>
  <path fill="#fff" d="M68.07 15.873h-.566V4.263h1.117v10.493h6.995v1.117H68.07ZM83.214 4.133l5.631 11.74h-1.16l-1.264-2.54h-6.443l-1.22 2.54h-1.175l5.631-11.74Zm-2.7 8.083h5.356l-2.714-5.514-2.641 5.514ZM92.276 15.873h-.986V4.263h5.181c.42 0 .841.073 1.233.233.377.16.726.391 1.03.667.305.29.552.624.712 1.002.188.391.275.812.275 1.233 0 .421-.087.842-.276 1.234-.174.406-.464.856-.856 1.117.334.16.624.363.886.61.304.29.551.638.725 1.015.189.407.29.828.29 1.278 0 .435-.101.856-.29 1.262a3.338 3.338 0 0 1-1.785 1.698 3.175 3.175 0 0 1-1.263.261h-4.876Zm.117-10.507V9.43h4.078c.536 0 1.088-.232 1.494-.61.421-.392.639-.9.639-1.422 0-.522-.218-1.03-.639-1.422-.406-.377-.958-.61-1.495-.61h-4.078Zm0 5.167v4.223h4.76c.566 0 1.131-.232 1.552-.639.436-.391.668-.914.668-1.465 0-.552-.232-1.074-.668-1.48a2.26 2.26 0 0 0-1.552-.64h-4.76ZM110.973 14.683c-.464.48-1.132.842-1.901 1.06a6.444 6.444 0 0 1-1.771.232 7.312 7.312 0 0 1-1.683-.203 5.249 5.249 0 0 1-1.567-.668 3.6 3.6 0 0 1-1.176-1.16l.943-.581c.378.61 1.118 1.088 2.076 1.32a5.665 5.665 0 0 0 2.873-.014c.595-.16 1.074-.436 1.408-.77.334-.333.508-.754.508-1.233a.926.926 0 0 0-.189-.58c-.131-.189-.348-.363-.624-.537-.58-.349-1.393-.624-2.177-.886h-.029c-.305-.101-.624-.203-.914-.319-.798-.261-1.611-.537-2.279-.929a2.862 2.862 0 0 1-.899-.798 1.947 1.947 0 0 1-.392-1.19c0-.74.275-1.408.798-1.945.435-.45 1.074-.798 1.814-1a6.492 6.492 0 0 1 3.294-.03c.566.13 1.06.348 1.495.624.494.305.871.682 1.132 1.132l-.943.58c-.363-.58-1.045-1.03-1.959-1.262-.886-.218-1.873-.218-2.714.015-.566.16-1.016.406-1.335.725-.305.32-.465.711-.465 1.161 0 .508.407.827.755 1.03.537.334 1.291.581 2.017.828.015 0 .029 0 .044.014h.029c.29.102.595.203.885.305.856.29 1.727.566 2.424.987.406.261.725.522.943.827.276.377.406.798.406 1.248 0 .77-.29 1.466-.827 2.017Z"/>
  <defs>
    <linearGradient id="a" x1="10.818" x2="13.214" y1="11.01" y2="15.16" gradientUnits="userSpaceOnUse">
      <stop stop-color="#F0F"/>
      <stop offset="1" stop-color="#9D00FF"/>
    </linearGradient>
    <linearGradient id="b" x1="8.422" x2="10.818" y1="6.859" y2="11.009" gradientUnits="userSpaceOnUse">
      <stop stop-color="#F0F"/>
      <stop offset="1" stop-color="#9D00FF"/>
    </linearGradient>
    <linearGradient id="c" x1="5.52" x2="-.799" y1="14.068" y2="3.123" gradientUnits="userSpaceOnUse">
      <stop stop-color="#00FFBE"/>
      <stop offset="1" stop-color="#603CF7"/>
    </linearGradient>
    <linearGradient id="d" x1="5.954" x2="3.558" y1="19.351" y2="15.201" gradientUnits="userSpaceOnUse">
      <stop stop-color="#00FFBE"/>
      <stop offset="1" stop-color="#508CFF"/>
    </linearGradient>
  </defs>
</svg>