<svg xmlns="http://www.w3.org/2000/svg" fill="none" viewBox="0 0 65 20">
  <path fill="#fff" d="M55.156 15.847h-2.164l5.686-11.874 5.685 11.874H62.2l-.906-1.862h-5.233l-.905 1.862Zm1.861-3.874h3.321l-1.66-3.422-1.66 3.422ZM27.28 9.66a3.436 3.436 0 0 0 .654-2.014 3.371 3.371 0 0 0-3.37-3.37H19.18v11.521h5.987a3.393 3.393 0 0 0 3.422-3.42c0-1.108-.504-2.064-1.309-2.718Zm-2.717-3.271c.705 0 1.258.553 1.258 1.257 0 .705-.553 1.258-1.258 1.258h-3.22V6.338l3.22.05Zm.604 7.346h-3.824v-2.717h3.824c.755 0 1.359.603 1.359 1.358 0 .755-.604 1.359-1.359 1.359ZM35.583 4.273a5.755 5.755 0 0 0-5.786 5.787 5.755 5.755 0 0 0 5.786 5.786 5.755 5.755 0 0 0 5.786-5.786 5.755 5.755 0 0 0-5.786-5.787Zm0 9.41a3.608 3.608 0 0 1-3.623-3.623 3.608 3.608 0 0 1 3.623-3.623 3.608 3.608 0 0 1 3.623 3.623 3.608 3.608 0 0 1-3.623 3.622ZM49.468 11.72a3.853 3.853 0 0 0 2.415-3.572 3.822 3.822 0 0 0-3.824-3.824h-4.98v11.522h2.062v-3.824h1.962l2.667 3.824h2.516l-2.818-4.126ZM48.01 9.91h-2.918V6.436h2.918c.956 0 1.761.805 1.761 1.761 0 .956-.805 1.711-1.761 1.711Z"/>
  <path fill="url(#a)" d="m14.357 8.966-4.773 2.756v5.284c0 .111.12.18.216.125l4.504-2.6a.144.144 0 0 0 .072-.125V9.038a.143.143 0 0 0-.019-.072Z"/>
  <path fill="url(#b)" d="m5.008 9.08 1.602.924 2.974 1.717 4.773-2.755a.145.145 0 0 0-.053-.053L9.656 6.23a.144.144 0 0 0-.144 0L6.447 8l-1.44.831a.144.144 0 0 0 0 .25Z"/>
  <path fill="url(#c)" d="M4.792.144c0-.11-.12-.18-.215-.125L.072 2.62A.144.144 0 0 0 0 2.745v14.427c0 .026.007.05.02.072l4.772-2.756V.144Z"/>
  <path fill="url(#d)" d="M.02 17.244c.011.022.03.04.052.053L4.72 19.98c.045.025.1.025.144 0l4.504-2.601a.144.144 0 0 0 0-.25L4.792 14.49.019 17.244Z"/>
  <defs>
    <linearGradient id="a" x1="10.818" x2="13.214" y1="11.01" y2="15.16" gradientUnits="userSpaceOnUse">
      <stop stop-color="#F0F"/>
      <stop offset="1" stop-color="#9D00FF"/>
    </linearGradient>
    <linearGradient id="b" x1="8.422" x2="10.818" y1="6.859" y2="11.009" gradientUnits="userSpaceOnUse">
      <stop stop-color="#F0F"/>
      <stop offset="1" stop-color="#9D00FF"/>
    </linearGradient>
    <linearGradient id="c" x1="5.52" x2="-.799" y1="14.068" y2="3.123" gradientUnits="userSpaceOnUse">
      <stop stop-color="#00FFBE"/>
      <stop offset="1" stop-color="#603CF7"/>
    </linearGradient>
    <linearGradient id="d" x1="5.954" x2="3.558" y1="19.351" y2="15.201" gradientUnits="userSpaceOnUse">
      <stop stop-color="#00FFBE"/>
      <stop offset="1" stop-color="#508CFF"/>
    </linearGradient>
  </defs>
</svg>