<svg xmlns="http://www.w3.org/2000/svg" width="112" height="20" viewBox="0 0 112 20" fill="none">
  <path d="M55.1557 15.847H52.9922L58.6778 3.97266L64.3634 15.847H62.1998L61.2941 13.9853H56.0614L55.1557 15.847ZM57.0174 11.9727H60.3382L58.6778 8.55131L57.0174 11.9727Z" fill="white"/>
  <path d="M27.2804 9.65908C27.6829 9.10562 27.9345 8.40121 27.9345 7.64649C27.9345 5.78484 26.425 4.27539 24.5634 4.27539H19.1797V15.7975H25.1672C27.0791 15.7975 28.5886 14.2881 28.5886 12.3761C28.5886 11.2692 28.0854 10.3132 27.2804 9.65908ZM24.5634 6.38862C25.2678 6.38862 25.8213 6.94208 25.8213 7.64649C25.8213 8.3509 25.2678 8.90436 24.5634 8.90436H21.3432V6.3383L24.5634 6.38862ZM25.1672 13.7346H21.3432V11.0176H25.1672C25.9219 11.0176 26.5257 11.6214 26.5257 12.3761C26.5257 13.1308 25.9219 13.7346 25.1672 13.7346Z" fill="white"/>
  <path d="M35.5831 4.27344C32.3629 4.27344 29.7969 6.8395 29.7969 10.0597C29.7969 13.2798 32.3629 15.8459 35.5831 15.8459C38.8032 15.8459 41.3693 13.2798 41.3693 10.0597C41.3693 6.8395 38.8032 4.27344 35.5831 4.27344ZM35.5831 13.6823C33.5705 13.6823 31.9604 12.0722 31.9604 10.0597C31.9604 8.04705 33.5705 6.43698 35.5831 6.43698C37.5957 6.43698 39.2058 8.04705 39.2058 10.0597C39.2058 12.0722 37.5957 13.6823 35.5831 13.6823Z" fill="white"/>
  <path d="M49.4681 11.7205C50.8769 11.167 51.8832 9.75823 51.8832 8.14815C51.8832 6.03493 50.1725 4.32422 48.0593 4.32422H43.0781V15.8463H45.141V12.0224H47.1033L49.77 15.8463H52.2858L49.4681 11.7205ZM48.009 9.90917H45.0907V6.43744H48.009C48.965 6.43744 49.77 7.24248 49.77 8.19847C49.77 9.15445 48.965 9.90917 48.009 9.90917Z" fill="white"/>
  <path d="M14.3658 8.96489L9.58984 11.7205V17.0051C9.58984 17.1157 9.70969 17.1849 9.80557 17.1296L14.3131 14.5288C14.3576 14.5032 14.385 14.4557 14.385 14.4044V9.03668C14.385 9.01102 14.3782 8.98637 14.3658 8.96489Z" fill="white"/>
  <path d="M5.00947 9.07999L6.61231 10.0048L9.58883 11.7223L14.3647 8.96661C14.3523 8.94513 14.3343 8.92687 14.3121 8.91399L9.66071 6.23018C9.61621 6.20452 9.5614 6.20452 9.5169 6.23018L6.44978 7.99989L5.00942 8.83094C4.91353 8.88628 4.91358 9.02466 5.00947 9.07999Z" fill="#D1D1D1"/>
  <path d="M4.79519 0.143975C4.79519 0.033308 4.6754 -0.0358586 4.57946 0.0194747L0.0718271 2.62034C0.027382 2.64605 0 2.69348 0 2.74479V17.1725C0 17.1981 0.00684524 17.2228 0.0192778 17.2444L4.79519 14.4887V8.95515V0.143975Z" fill="white"/>
  <path d="M0.0195812 17.2439C0.0319634 17.2654 0.0499335 17.2836 0.0720806 17.2964L4.72362 19.9804C4.76812 20.006 4.82293 20.006 4.86743 19.9804L9.37491 17.3795C9.4708 17.3242 9.4708 17.1859 9.37491 17.1306L4.79545 14.4883L0.0195812 17.2439Z" fill="#D1D1D1"/>
  <path d="M68.0699 15.8734H67.5039V4.26342H68.6214V14.7559H75.6164V15.8734H68.0699Z" fill="white"/>
  <path d="M83.2142 4.13281L88.8451 15.8734H87.6841L86.4215 13.3337H79.9779L78.7589 15.8734H77.5834L83.2142 4.13281ZM80.5149 12.2163H85.87L83.1562 6.70152L80.5149 12.2163Z" fill="white"/>
  <path d="M92.2764 15.8734H91.2895V4.26342H92.3925H96.4705C96.8913 4.26342 97.3122 4.33599 97.704 4.49562C98.0813 4.65526 98.4296 4.88746 98.7344 5.1632C99.0392 5.45345 99.2859 5.78723 99.4455 6.16456C99.6342 6.5564 99.7213 6.97726 99.7213 7.39812C99.7213 7.81898 99.6342 8.23984 99.4455 8.63168C99.2714 9.03803 98.9811 9.48792 98.5893 9.74914C98.9231 9.90878 99.2133 10.112 99.4745 10.3587C99.7793 10.6489 100.026 10.9972 100.2 11.3745C100.389 11.7809 100.49 12.2017 100.49 12.6516C100.49 13.087 100.389 13.5079 100.2 13.9142C100.026 14.2915 99.7793 14.6398 99.4745 14.9301C99.1698 15.2203 98.807 15.4525 98.4151 15.6122C98.0088 15.7863 97.5879 15.8734 97.1525 15.8734H92.2764ZM92.3925 5.36637V9.42986H96.4705C97.0074 9.42986 97.5589 9.19767 97.9652 8.82034C98.3861 8.4285 98.6038 7.92057 98.6038 7.39812C98.6038 6.87567 98.3861 6.36773 97.9652 5.9759C97.5589 5.59857 97.0074 5.36637 96.4705 5.36637H92.3925ZM92.3925 10.5328V14.7559H97.1525C97.7185 14.7559 98.2845 14.5237 98.7054 14.1174C99.1408 13.7256 99.373 13.2031 99.373 12.6516C99.373 12.1002 99.1408 11.5777 98.7054 11.1714C98.2845 10.765 97.7185 10.5328 97.1525 10.5328H92.3925Z" fill="white"/>
  <path d="M110.973 14.6834C110.509 15.1623 109.841 15.5251 109.072 15.7428C108.52 15.9024 107.911 15.975 107.301 15.975C106.735 15.975 106.169 15.9024 105.618 15.7718C105.037 15.6267 104.5 15.3945 104.051 15.1042C103.543 14.785 103.151 14.3931 102.875 13.9432L103.818 13.3627C104.196 13.9723 104.936 14.4512 105.894 14.6834C106.837 14.9301 107.882 14.9156 108.767 14.6689C109.362 14.5092 109.841 14.2335 110.175 13.8997C110.509 13.5659 110.683 13.1451 110.683 12.6661C110.683 12.4485 110.625 12.2598 110.494 12.0856C110.363 11.897 110.146 11.7228 109.87 11.5487C109.29 11.2004 108.477 10.9246 107.693 10.6634C107.679 10.6634 107.679 10.6634 107.664 10.6634C107.359 10.5618 107.04 10.4603 106.75 10.3442C105.952 10.0829 105.139 9.80719 104.471 9.41535C104.08 9.18315 103.789 8.92193 103.572 8.61717C103.31 8.26887 103.18 7.86252 103.18 7.42714C103.18 6.68701 103.455 6.01943 103.978 5.48247C104.413 5.03259 105.052 4.68429 105.792 4.48111C106.822 4.19086 108.012 4.17635 109.086 4.45209C109.652 4.5827 110.146 4.80039 110.581 5.07612C111.075 5.38088 111.452 5.75821 111.713 6.2081L110.77 6.78859C110.407 6.2081 109.725 5.75821 108.811 5.52601C107.925 5.30832 106.938 5.30832 106.097 5.54052C105.531 5.70016 105.081 5.94687 104.762 6.26615C104.457 6.58542 104.297 6.97726 104.297 7.42714C104.297 7.93508 104.704 8.25435 105.052 8.45753C105.589 8.79132 106.343 9.03803 107.069 9.28474C107.084 9.28474 107.098 9.28474 107.113 9.29925C107.127 9.29925 107.127 9.29925 107.142 9.29925C107.432 9.40084 107.737 9.50243 108.027 9.60401C108.883 9.89426 109.754 10.17 110.451 10.5909C110.857 10.8521 111.176 11.1133 111.394 11.4181C111.67 11.7954 111.8 12.2163 111.8 12.6661C111.8 13.4353 111.51 14.1319 110.973 14.6834Z" fill="white"/>
</svg>