<svg xmlns="http://www.w3.org/2000/svg" fill="none" viewBox="0 0 97 16">
  <g clip-path="url(#a)">
    <path fill="#fff" d="M44.794 12.58H43.07l4.53-9.445 4.53 9.445H50.41l-.725-1.47h-4.175l-.713 1.47h-.002Zm1.47-3.07h2.632l-1.33-2.7-1.302 2.7ZM22.616 7.695a2.67 2.67 0 0 0-2.145-4.258h-4.282v9.143h4.76a2.726 2.726 0 0 0 1.667-4.885Zm-2.145-2.6a1.011 1.011 0 1 1 0 2.025h-2.565l-.005-2.025h2.57Zm.477 5.837h-3.042V8.777h3.043a1.078 1.078 0 0 1 0 2.155ZM29.24 3.406a4.602 4.602 0 0 0-4.602 4.603 4.602 4.602 0 0 0 4.602 4.602 4.602 4.602 0 0 0 4.603-4.602 4.602 4.602 0 0 0-4.603-4.603Zm0 7.47a2.867 2.867 0 1 1 0-5.735 2.867 2.867 0 0 1 0 5.735ZM40.27 9.325a3.056 3.056 0 0 0-1.15-5.887h-3.97v9.142h1.654V9.537h1.56l2.133 3.043h2.005l-2.233-3.255Zm-1.15-1.442h-2.316V5.104h2.315a1.39 1.39 0 0 1 0 2.78v-.002ZM54.563 9.555v.165c0 1.522 1.093 2.217 3.035 2.217 1.943 0 2.78-.92 2.78-2.022 0-.695-.425-1.403-1.788-1.508l-2.452-.195c-1.66-.135-2.367-.905-2.367-2.112 0-1.328 1.12-2.76 3.517-2.76 2.398 0 3.518 1.222 3.518 2.82v.12h-.795v-.15c0-1.163-.823-2.038-2.723-2.038-1.688 0-2.722.875-2.722 2.008 0 .71.454 1.267 1.645 1.357l2.44.195c1.842.15 2.524 1.118 2.524 2.263 0 1.222-.977 2.775-3.572 2.775-2.44 0-3.83-1.133-3.83-2.853V9.55h.795l-.005.005ZM69.69 6.915v-.15c-.113-1.433-1.263-2.67-3.19-2.67-2.028 0-3.616 1.492-3.616 3.922s1.588 3.923 3.615 3.923c2.028 0 3.078-1.268 3.19-2.505V9.27h.808v.09c0 1.402-1.235 3.335-4 3.335-2.468 0-4.41-1.795-4.41-4.678 0-2.882 1.942-4.677 4.41-4.677 2.652 0 4 1.93 4 3.47v.105h-.808ZM80.585 8.013c0 2.913-2.042 4.678-4.567 4.678-2.525 0-4.568-1.765-4.568-4.678 0-2.912 2.055-4.677 4.568-4.677 2.512 0 4.567 1.765 4.567 4.677Zm-8.337 0c0 2.415 1.702 3.923 3.772 3.923s3.773-1.508 3.773-3.923-1.688-3.922-3.773-3.922-3.772 1.492-3.772 3.922ZM85.64 3.488h-3.56v9.053h.794V9.9h2.765c1.943 0 3.403-1.193 3.403-3.198s-1.448-3.212-3.403-3.212v-.003Zm-.016 5.658h-2.75V4.243h2.75c1.545 0 2.623.92 2.623 2.46s-1.093 2.445-2.623 2.445v-.002ZM91.028 11.786V8.24h5.305v-.755h-5.305V4.243h5.73v-.755h-6.522v9.053H96.9v-.755h-5.872Z"/>
    <path fill="url(#b)" d="m12.366 7.129-3.795 2.19v4.202c0 .088.096.143.172.1l3.581-2.069a.114.114 0 0 0 .057-.098V7.186c0-.02-.005-.04-.015-.057Z"/>
    <path fill="url(#c)" d="m4.933 7.219 1.274.735 2.365 1.365 3.794-2.19a.115.115 0 0 0-.041-.042L8.629 4.953a.114.114 0 0 0-.114 0L6.078 6.36l-1.145.66a.114.114 0 0 0 0 .199Z"/>
    <path fill="url(#d)" d="M4.76.114A.114.114 0 0 0 4.59.015L1.007 2.083a.114.114 0 0 0-.057.1v11.47c0 .02.006.04.016.057l3.794-2.19V.113Z"/>
    <path fill="url(#e)" d="M.966 13.71c.01.017.024.032.042.042l3.695 2.134c.036.02.08.02.115 0l3.581-2.068a.114.114 0 0 0 0-.198l-3.638-2.1-3.795 2.19Z"/>
  </g>
  <defs>
    <linearGradient id="b" x1="9.552" x2="11.457" y1="8.753" y2="12.053" gradientUnits="userSpaceOnUse">
      <stop stop-color="#F0F"/>
      <stop offset="1" stop-color="#9D00FF"/>
    </linearGradient>
    <linearGradient id="c" x1="7.648" x2="9.553" y1="5.453" y2="8.753" gradientUnits="userSpaceOnUse">
      <stop stop-color="#F0F"/>
      <stop offset="1" stop-color="#9D00FF"/>
    </linearGradient>
    <linearGradient id="d" x1="5.339" x2=".315" y1="11.185" y2="2.483" gradientUnits="userSpaceOnUse">
      <stop stop-color="#00FFBE"/>
      <stop offset="1" stop-color="#603CF7"/>
    </linearGradient>
    <linearGradient id="e" x1="5.685" x2="3.78" y1="15.386" y2="12.086" gradientUnits="userSpaceOnUse">
      <stop stop-color="#00FFBE"/>
      <stop offset="1" stop-color="#508CFF"/>
    </linearGradient>
    <clipPath id="a">
      <path fill="#fff" d="M.95 0H96.9v16H.95z"/>
    </clipPath>
  </defs>
</svg>