<svg xmlns="http://www.w3.org/2000/svg" fill="none" viewBox="0 0 184 32">
  <path fill="#000" d="M90.774 25.357h-3.561L96.57 6.358l9.357 19h-3.56l-1.491-2.98h-8.612l-1.49 2.98Zm3.064-6.198h5.465l-2.733-5.475-2.732 5.475ZM44.898 15.456a5.396 5.396 0 0 0 1.077-3.22c0-2.98-2.484-5.394-5.548-5.394h-8.86v18.435h9.853c3.147 0 5.631-2.415 5.631-5.474 0-1.771-.828-3.3-2.153-4.347Zm-4.471-5.233c1.16 0 2.07.885 2.07 2.013 0 1.127-.91 2.012-2.07 2.012h-5.3v-4.105l5.3.08Zm.993 11.754h-6.293v-4.348h6.293c1.243 0 2.236.966 2.236 2.174 0 1.207-.993 2.174-2.236 2.174ZM58.562 6.842c-5.3 0-9.523 4.106-9.523 9.258 0 5.152 4.223 9.258 9.523 9.258s9.523-4.106 9.523-9.258c0-5.153-4.223-9.258-9.523-9.258Zm0 15.054c-3.312 0-5.962-2.576-5.962-5.796s2.65-5.797 5.962-5.797 5.962 2.577 5.962 5.797c0 3.22-2.65 5.796-5.962 5.796ZM81.417 18.756c2.319-.886 3.975-3.14 3.975-5.716 0-3.381-2.816-6.118-6.294-6.118H70.9v18.435h3.395V19.24h3.23l4.389 6.118h4.14l-4.637-6.601Zm-2.401-2.898h-4.803v-5.555h4.803c1.573 0 2.898 1.288 2.898 2.818s-1.325 2.737-2.898 2.737ZM23.643 14.346l-7.86 4.409v8.455c0 .177.197.288.355.2l7.419-4.162a.229.229 0 0 0 .118-.2v-8.587a.223.223 0 0 0-.032-.115Z"/>
  <path fill="#000" d="m8.247 14.528 2.638 1.48 4.899 2.748 7.86-4.41a.234.234 0 0 0-.087-.084l-7.655-4.294a.243.243 0 0 0-.236 0L10.618 12.8l-2.37 1.33a.227.227 0 0 0 0 .398ZM7.892.23c0-.177-.197-.287-.355-.199L.118 4.193A.229.229 0 0 0 0 4.392v23.084c0 .041.011.08.032.115l7.86-4.409V.23Z"/>
  <path fill="#000" d="M.031 27.59c.02.035.05.064.087.085l7.655 4.294a.243.243 0 0 0 .237 0l7.418-4.161a.227.227 0 0 0 0-.399l-7.537-4.227-7.86 4.409ZM112.029 25.396h-.931V6.82h1.839v16.788h11.512v1.788h-12.42ZM136.953 6.611l9.268 18.785h-1.911l-2.078-4.063h-10.605l-2.006 4.063h-1.935l9.267-18.785Zm-4.442 12.934h8.813l-4.466-8.824-4.347 8.824ZM151.868 25.396h-1.624V6.82h8.526c.693 0 1.386.116 2.03.372a6.097 6.097 0 0 1 1.696 1.068c.502.464.908.998 1.171 1.602.31.627.453 1.3.453 1.974 0 .673-.143 1.347-.453 1.973-.287.65-.765 1.37-1.41 1.789.55.255 1.027.58 1.457.975a5.353 5.353 0 0 1 1.195 1.625c.31.65.477 1.324.477 2.043 0 .697-.167 1.37-.477 2.02a5.353 5.353 0 0 1-1.195 1.626 5.607 5.607 0 0 1-1.743 1.091 5.354 5.354 0 0 1-2.078.418h-8.025Zm.191-16.811v6.502h6.711c.884 0 1.792-.372 2.46-.976.693-.627 1.051-1.44 1.051-2.275 0-.836-.358-1.649-1.051-2.276-.668-.603-1.576-.975-2.46-.975h-6.711Zm0 8.266v6.757h7.834c.931 0 1.863-.371 2.555-1.021.717-.627 1.099-1.463 1.099-2.346 0-.882-.382-1.718-1.099-2.368a3.775 3.775 0 0 0-2.555-1.022h-7.834ZM182.638 23.492c-.764.767-1.863 1.347-3.129 1.695-.907.256-1.91.372-2.914.372-.931 0-1.863-.116-2.77-.325a8.806 8.806 0 0 1-2.58-1.068c-.836-.511-1.48-1.138-1.934-1.858l1.552-.929c.621.976 1.839 1.742 3.416 2.113 1.552.395 3.272.372 4.729-.023.979-.255 1.767-.697 2.317-1.23a2.68 2.68 0 0 0 .835-1.974c0-.349-.095-.65-.31-.93-.215-.301-.573-.58-1.027-.858-.955-.558-2.293-.999-3.583-1.417h-.047c-.502-.162-1.027-.325-1.505-.51-1.314-.419-2.651-.86-3.75-1.487-.645-.371-1.123-.79-1.481-1.277a3.065 3.065 0 0 1-.645-1.904c0-1.184.454-2.252 1.314-3.111.716-.72 1.767-1.277 2.985-1.602 1.696-.465 3.655-.488 5.422-.047a7.975 7.975 0 0 1 2.46.999c.812.487 1.433 1.091 1.863 1.81l-1.552.93c-.597-.93-1.72-1.649-3.225-2.02-1.457-.349-3.081-.349-4.466.023-.931.255-1.672.65-2.197 1.16a2.576 2.576 0 0 0-.765 1.858c0 .813.669 1.324 1.242 1.649.884.534 2.126.929 3.32 1.323.024 0 .048 0 .072.024h.048c.477.162.979.325 1.457.487 1.409.465 2.842.906 3.988 1.58.669.417 1.195.835 1.553 1.323a3.25 3.25 0 0 1 .669 1.997c0 1.23-.478 2.345-1.362 3.227Z"/>
</svg>