<svg width="20" height="20" viewBox="0 0 20 20" fill="none" xmlns="http://www.w3.org/2000/svg">
<path d="M18.1221 1.53846L10.9905 6.80877L12.3166 3.70281L18.1221 1.53846Z" fill="#E17726"/>
<path d="M1.67213 1.53846L8.74027 6.85796L7.47761 3.7028L1.67213 1.53846Z" fill="#E27625"/>
<path d="M15.5544 13.7585L13.6568 16.6536L17.72 17.771L18.8839 13.8218L15.5544 13.7585Z" fill="#E27625"/>
<path d="M0.917247 13.8218L2.0741 17.771L6.13018 16.6536L4.23969 13.7585L0.917247 13.8218Z" fill="#E27625"/>
<path d="M5.91151 8.86769L4.78288 10.5683L8.80367 10.751L8.66966 6.42932L5.91151 8.86769Z" fill="#E27625"/>
<path d="M13.8825 8.86772L11.0821 6.38014L10.9904 10.751L15.0111 10.5683L13.8825 8.86772Z" fill="#E27625"/>
<path d="M6.13018 16.6536L8.56387 15.4802L6.46887 13.8499L6.13018 16.6536Z" fill="#E27625"/>
<path d="M11.2304 15.4802L13.6568 16.6536L13.3254 13.8499L11.2304 15.4802Z" fill="#E27625"/>
<path d="M13.6568 16.6536L11.2304 15.4802L11.4278 17.0543L11.4067 17.7219L13.6568 16.6536Z" fill="#D5BFB2"/>
<path d="M6.13018 16.6536L8.38756 17.7219L8.37345 17.0543L8.56387 15.4802L6.13018 16.6536Z" fill="#D5BFB2"/>
<path d="M8.42988 12.8099L6.41241 12.2196L7.83731 11.5661L8.42988 12.8099Z" fill="#233447"/>
<path d="M11.3644 12.8099L11.957 11.5661L13.3889 12.2196L11.3644 12.8099Z" fill="#233447"/>
<path d="M6.13018 16.6536L6.48296 13.7585L4.23978 13.8218L6.13018 16.6536Z" fill="#CC6228"/>
<path d="M13.3113 13.7585L13.6568 16.6536L15.5545 13.8218L13.3113 13.7585Z" fill="#CC6228"/>
<path d="M15.0111 10.5683L10.9904 10.751L11.3644 12.8099L11.957 11.5661L13.3889 12.2196L15.0111 10.5683Z" fill="#CC6228"/>
<path d="M6.41241 12.2196L7.83731 11.5661L8.42988 12.8099L8.80367 10.751L4.78288 10.5683L6.41241 12.2196Z" fill="#CC6228"/>
<path d="M4.78288 10.5683L6.46887 13.8499L6.41241 12.2196L4.78288 10.5683Z" fill="#E27525"/>
<path d="M13.3889 12.2196L13.3254 13.8499L15.0111 10.5683L13.3889 12.2196Z" fill="#E27525"/>
<path d="M8.80367 10.751L8.42988 12.8099L8.90263 15.2412L9.00845 12.0369L8.80367 10.751Z" fill="#E27525"/>
<path d="M10.9904 10.751L10.793 12.0299L10.8918 15.2412L11.3644 12.8099L10.9904 10.751Z" fill="#E27525"/>
<path d="M11.3644 12.8099L10.8918 15.2412L11.2304 15.4802L13.3254 13.8499L13.3889 12.2196L11.3644 12.8099Z" fill="#F5841F"/>
<path d="M6.41241 12.2196L6.46887 13.8499L8.56387 15.4802L8.90263 15.2412L8.42988 12.8099L6.41241 12.2196Z" fill="#F5841F"/>
<path d="M11.4067 17.7219L11.4278 17.0543L11.2444 16.8996H8.54981L8.37345 17.0543L8.38756 17.7219L6.13018 16.6536L6.92031 17.3002L8.52157 18.4035H11.2656L12.8739 17.3002L13.6568 16.6536L11.4067 17.7219Z" fill="#C0AC9D"/>
<path d="M11.2304 15.4802L10.8918 15.2412H8.90263L8.56387 15.4802L8.37345 17.0543L8.54981 16.8996H11.2444L11.4278 17.0543L11.2304 15.4802Z" fill="#161616"/>
<path d="M18.4254 7.15308L19.025 4.24389L18.1221 1.53846L11.2304 6.63312L13.8825 8.86772L17.6283 9.95692L18.4536 8.99422L18.0939 8.73418L18.6653 8.21422L18.2279 7.8769L18.7993 7.44121L18.4254 7.15308Z" fill="#763E1A"/>
<path d="M0.769209 4.24389L1.37586 7.15308L0.987886 7.44121L1.56631 7.8769L1.12897 8.21422L1.70034 8.73418L1.34058 8.99422L2.16591 9.95692L5.91151 8.86769L8.56389 6.63312L1.67213 1.53846L0.769209 4.24389Z" fill="#763E1A"/>
<path d="M17.6283 9.95692L13.8825 8.86772L15.0111 10.5683L13.3254 13.8499L15.5545 13.8218H18.8839L17.6283 9.95692Z" fill="#F5841F"/>
<path d="M5.91151 8.86769L2.16591 9.95692L0.917247 13.8218H4.23978L6.46887 13.8499L4.78288 10.5683L5.91151 8.86769Z" fill="#F5841F"/>
<path d="M10.9904 10.751L11.2304 6.63312L12.3166 3.70281L7.47761 3.7028L8.56389 6.63312L8.80367 10.751L8.89543 12.0439L8.90263 15.2412H10.8918L10.8988 12.0439L10.9904 10.751Z" fill="#F5841F"/>
</svg>
